<svg width="185" height="175" viewBox="0 0 185 175" fill="none" xmlns="http://www.w3.org/2000/svg">
<path d="M141 100.156C145.873 100.156 150.547 98.1907 153.993 94.692C157.439 91.1932 159.375 86.4479 159.375 81.5C159.375 76.5521 157.439 71.8068 153.993 68.308C150.547 64.8093 145.873 62.8438 141 62.8438C136.127 62.8438 131.453 64.8093 128.007 68.308C124.561 71.8068 122.625 76.5521 122.625 81.5C122.625 86.4479 124.561 91.1932 128.007 94.692C131.453 98.1907 136.127 100.156 141 100.156ZM141 93.9375C137.751 93.9375 134.635 92.6271 132.338 90.2946C130.041 87.9622 128.75 84.7986 128.75 81.5C128.75 78.2014 130.041 75.0378 132.338 72.7054C134.635 70.3729 137.751 69.0625 141 69.0625C144.249 69.0625 147.365 70.3729 149.662 72.7054C151.959 75.0378 153.25 78.2014 153.25 81.5C153.25 84.7986 151.959 87.9622 149.662 90.2946C147.365 92.6271 144.249 93.9375 141 93.9375ZM95.0625 36.4141C95.0625 40.125 93.6105 43.684 91.0261 46.308C88.4416 48.9321 84.9363 50.4062 81.2812 50.4062C77.6262 50.4062 74.1209 48.9321 71.5364 46.308C68.952 43.684 67.5 40.125 67.5 36.4141C67.5 32.7031 68.952 29.1441 71.5364 26.5201C74.1209 23.896 77.6262 22.4219 81.2812 22.4219C84.9363 22.4219 88.4416 23.896 91.0261 26.5201C93.6105 29.1441 95.0625 32.7031 95.0625 36.4141ZM58.3125 61.2891C58.3125 63.1265 57.956 64.946 57.2635 66.6436C56.5709 68.3413 55.5558 69.8837 54.2761 71.183C52.9964 72.4823 51.4771 73.513 49.8051 74.2162C48.1331 74.9193 46.341 75.2812 44.5312 75.2812C42.7215 75.2812 40.9294 74.9193 39.2574 74.2162C37.5854 73.513 36.0661 72.4823 34.7864 71.183C33.5067 69.8837 32.4916 68.3413 31.799 66.6436C31.1065 64.946 30.75 63.1265 30.75 61.2891C30.75 57.5781 32.202 54.0191 34.7864 51.3951C37.3709 48.771 40.8762 47.2969 44.5312 47.2969C48.1863 47.2969 51.6916 48.771 54.2761 51.3951C56.8605 54.0191 58.3125 57.5781 58.3125 61.2891ZM44.5312 118.812C46.341 118.812 48.1331 118.451 49.8051 117.747C51.4771 117.044 52.9964 116.014 54.2761 114.714C55.5558 113.415 56.5709 111.873 57.2635 110.175C57.956 108.477 58.3125 106.658 58.3125 104.82C58.3125 102.983 57.956 101.163 57.2635 99.4657C56.5709 97.7681 55.5558 96.2256 54.2761 94.9263C52.9964 93.627 51.4771 92.5964 49.8051 91.8932C48.1331 91.19 46.341 90.8281 44.5312 90.8281C40.8762 90.8281 37.3709 92.3023 34.7864 94.9263C32.202 97.5504 30.75 101.109 30.75 104.82C30.75 108.531 32.202 112.09 34.7864 114.714C37.3709 117.338 40.8762 118.812 44.5312 118.812ZM92 132.805C92 136.516 90.548 140.075 87.9636 142.699C85.3791 145.323 81.8738 146.797 78.2188 146.797C74.5637 146.797 71.0584 145.323 68.4739 142.699C65.8895 140.075 64.4375 136.516 64.4375 132.805C64.4375 129.094 65.8895 125.535 68.4739 122.911C71.0584 120.287 74.5637 118.812 78.2188 118.812C81.8738 118.812 85.3791 120.287 87.9636 122.911C90.548 125.535 92 129.094 92 132.805Z" fill="black"/>
<path d="M93.225 174.781C76.1263 173.513 59.6147 167.907 45.205 158.476C24.145 145.949 8.83997 125.452 2.64851 101.481C-0.0200424 91.0446 -0.610689 80.1727 0.91117 69.5019C2.43303 58.831 6.03679 48.5758 11.5114 39.3368C34.523 0.780542 86.1078 -10.6184 131.488 12.8698C158.554 26.8931 178.797 51.3701 183.048 75.2439C184.461 81.8312 184.302 88.666 182.584 95.1783C180.867 101.691 177.64 107.692 173.175 112.681C159.957 127.332 142.899 127.127 130.502 126.984H130.459C122.221 126.835 117.076 126.984 115.845 129.471C116.273 131.387 117.021 133.227 118.05 134.9C121.143 139.317 122.697 144.656 122.465 150.07C122.233 155.485 120.229 160.666 116.77 164.794C113.865 168.184 110.23 170.849 106.147 172.581C102.063 174.313 97.6416 175.066 93.225 174.781ZM82.9901 13.0937C70.902 12.6767 58.9158 15.469 48.2159 21.1948C37.516 26.9206 28.4725 35.3817 21.979 45.7421C17.3457 53.5794 14.2994 62.2767 13.0184 71.3244C11.7374 80.3722 12.2474 89.5885 14.5188 98.4336C19.9046 119.199 33.1885 136.945 51.4525 147.773C71.9774 160.136 98.2108 168.295 107.257 156.933C112.078 150.914 110.547 147.201 107.184 140.628C105.449 138.247 104.332 135.462 103.934 132.528C103.536 129.594 103.87 126.606 104.905 123.837C109.689 114.26 120.328 114.366 130.63 114.509C141.87 114.665 154.622 114.82 164.146 104.254C167.294 100.649 169.556 96.3392 170.748 91.6765C171.94 87.0138 172.029 82.1308 171.006 77.4266C167.466 57.5266 149.348 36.0533 125.939 23.9454C112.667 16.952 97.9546 13.2442 83.0024 13.1248L82.9901 13.0937Z" fill="black"/>
</svg>
