<svg width="75" height="52" viewBox="0 0 75 52" fill="none" xmlns="http://www.w3.org/2000/svg">
<path d="M22.0833 51.8334C20.1125 51.8334 18.4259 51.3279 17.0236 50.3169C15.619 49.3043 14.9166 48.0875 14.9166 46.6667C14.9166 45.2459 15.619 44.0291 17.0236 43.0164C18.4259 42.0055 20.1125 41.5 22.0833 41.5C24.0541 41.5 25.7407 42.0055 27.143 43.0164C28.5476 44.0291 29.25 45.2459 29.25 46.6667C29.25 48.0875 28.5476 49.3043 27.143 50.3169C25.7407 51.3279 24.0541 51.8334 22.0833 51.8334ZM57.9166 51.8334C55.9458 51.8334 54.2593 51.3279 52.857 50.3169C51.4523 49.3043 50.75 48.0875 50.75 46.6667C50.75 45.2459 51.4523 44.0291 52.857 43.0164C54.2593 42.0055 55.9458 41.5 57.9166 41.5C59.8875 41.5 61.5752 42.0055 62.9799 43.0164C64.3822 44.0291 65.0833 45.2459 65.0833 46.6667C65.0833 48.0875 64.3822 49.3043 62.9799 50.3169C61.5752 51.3279 59.8875 51.8334 57.9166 51.8334ZM19.0375 10.5L27.6375 23.4167H52.7208L62.575 10.5H19.0375ZM9.98956 38.9167L20.65 24.9667L7.74998 5.33335H0.583313V0.166687H12.2291L15.6333 5.33335H74.7583L56.9312 28.5834H26.025L22.0833 33.75H65.0833V38.9167H9.98956Z" fill="white"/>
</svg>
