<svg width="196" height="141" viewBox="0 0 196 141" fill="none" xmlns="http://www.w3.org/2000/svg">
<path d="M196 80.4501V30.7001L147 0.850098L98 30.7001L49 0.850098L0 30.7001V80.4501L98 140.15L196 80.4501ZM68.6 60.5501H49V80.4501H39.2V60.5501H19.6V50.6001H39.2V30.7001H49V50.6001H68.6V60.5501ZM127.4 80.4501C124.801 80.4501 122.308 79.4018 120.47 77.5358C118.632 75.6698 117.6 73.139 117.6 70.5001C117.6 65.0276 122.01 60.5501 127.4 60.5501C132.79 60.5501 137.2 65.0276 137.2 70.5001C137.2 75.9726 132.79 80.4501 127.4 80.4501ZM156.8 60.5501C155.513 60.5501 154.239 60.2927 153.05 59.7927C151.861 59.2927 150.78 58.5597 149.87 57.6358C148.96 56.7119 148.238 55.615 147.746 54.4078C147.253 53.2006 147 51.9067 147 50.6001C147 45.1276 151.41 40.6501 156.8 40.6501C162.19 40.6501 166.6 45.1276 166.6 50.6001C166.6 56.0726 162.19 60.5501 156.8 60.5501Z" fill="black"/>
</svg>
