<svg width="31" height="30" viewBox="0 0 31 30" fill="none" xmlns="http://www.w3.org/2000/svg">
<path d="M28.3583 29.25L17.5958 19.0125C16.7417 19.6625 15.7594 20.1771 14.649 20.5562C13.5385 20.9354 12.3569 21.125 11.1042 21.125C8.00069 21.125 5.37442 20.1023 3.22533 18.057C1.07625 16.0117 0.00113889 13.5135 0 10.5625C0 7.61042 1.07511 5.11225 3.22533 3.068C5.37556 1.02375 8.00183 0.00108333 11.1042 0C14.2076 0 16.8339 1.02267 18.983 3.068C21.1321 5.11333 22.2072 7.6115 22.2083 10.5625C22.2083 11.7542 22.009 12.8781 21.6104 13.9344C21.2118 14.9906 20.6708 15.925 19.9875 16.7375L30.75 26.975L28.3583 29.25ZM11.1042 17.875C13.2396 17.875 15.055 17.1638 16.5503 15.7414C18.0457 14.319 18.7928 12.5927 18.7917 10.5625C18.7917 8.53125 18.044 6.80442 16.5486 5.382C15.0533 3.95958 13.2384 3.24892 11.1042 3.25C8.96875 3.25 7.15336 3.96121 5.658 5.38363C4.16264 6.80604 3.41553 8.53233 3.41667 10.5625C3.41667 12.5938 4.16435 14.3206 5.65971 15.743C7.15507 17.1654 8.96989 17.8761 11.1042 17.875Z" fill="#928A8A"/>
</svg>
