<svg width="164" height="133" viewBox="0 0 164 133" fill="none" xmlns="http://www.w3.org/2000/svg">
<path d="M16.6666 132.833C12.1749 132.833 8.32843 131.208 5.1271 127.958C1.92576 124.707 0.327821 120.805 0.333266 116.25V16.7499C0.333266 12.1894 1.93393 8.28406 5.13527 5.03373C8.3366 1.78339 12.1804 0.16099 16.6666 0.166518H114.667C119.158 0.166518 123.005 1.79168 126.206 5.04202C129.407 8.29235 131.005 12.195 131 16.7499V54.0624L156.725 27.9436C157.95 26.6999 159.412 26.3875 161.11 27.0066C162.809 27.6258 163.661 28.9054 163.667 30.8457V102.154C163.667 104.089 162.815 105.368 161.11 105.993C159.406 106.618 157.944 106.305 156.725 105.056L131 78.9374V116.25C131 120.81 129.399 124.716 126.198 127.966C122.997 131.216 119.153 132.839 114.667 132.833H16.6666ZM33.2041 99.6665H98.1291C99.8985 99.6665 101.159 98.9065 101.91 97.3863C102.662 95.8662 102.49 94.4151 101.396 93.0332L81.5916 66.7071C80.7749 65.6016 79.686 65.0488 78.3249 65.0488C76.9638 65.0488 75.8749 65.6016 75.0583 66.7071L59.5416 87.229L50.1499 74.7915C49.3333 73.686 48.2444 73.1332 46.8833 73.1332C45.5222 73.1332 44.4333 73.686 43.6166 74.7915L29.9374 93.0332C28.8485 94.4151 28.677 95.8662 29.4229 97.3863C30.1688 98.9065 31.4292 99.6665 33.2041 99.6665Z" fill="black"/>
</svg>
