<svg width="164" height="121" viewBox="0 0 164 121" fill="none" xmlns="http://www.w3.org/2000/svg">
<path d="M16.6667 121C12.1751 121 8.32855 119.759 5.12722 117.276C1.92589 114.793 0.327943 111.812 0.333388 108.333V38.6665C0.333388 35.1832 1.93405 32.2002 5.13539 29.7175C8.33672 27.2348 12.1805 25.9956 16.6667 25.9998H49.3334V13.3332C49.3334 9.84985 50.9341 6.86685 54.1354 4.38418C57.3367 1.90151 61.1805 0.662292 65.6667 0.666515H98.3334C102.825 0.666515 106.672 1.90785 109.873 4.39051C113.074 6.87318 114.672 9.85407 114.667 13.3332V25.9998H147.333C151.825 25.9998 155.672 27.2412 158.873 29.7238C162.074 32.2065 163.672 35.1874 163.667 38.6665V108.333C163.667 111.817 162.066 114.8 158.865 117.282C155.663 119.765 151.82 121.004 147.333 121H16.6667ZM65.6667 25.9998H98.3334V13.3332H65.6667V25.9998Z" fill="black"/>
</svg>
